<?xml version="1.0" standalone="no"?>
<!DOCTYPE svg PUBLIC "-//W3C//DTD SVG 20010904//EN"
 "http://www.w3.org/TR/2001/REC-SVG-20010904/DTD/svg10.dtd">
<svg version="1.0" xmlns="http://www.w3.org/2000/svg"
 width="949.000000pt" height="256.000000pt" viewBox="0 0 949.000000 256.000000"
 preserveAspectRatio="xMidYMid meet">

<g transform="translate(0.000000,256.000000) scale(0.100000,-0.100000)"
fill="#000000" stroke="none">
<path d="M0 1280 l0 -1280 4745 0 4745 0 0 1280 0 1280 -4745 0 -4745 0 0
-1280z m2334 -22 c2 -32 0 -58 -4 -58 -4 0 -10 -38 -13 -85 -6 -86 -33 -205
-47 -205 -4 0 -15 -26 -24 -59 -9 -32 -27 -71 -41 -87 -14 -16 -25 -34 -25
-40 0 -17 -96 -142 -158 -206 -49 -50 -191 -158 -208 -158 -7 0 -18 -8 -23
-17 -6 -10 -11 -14 -11 -10 0 5 -7 2 -15 -7 -8 -8 -40 -22 -70 -31 -30 -8 -55
-19 -55 -23 0 -13 -127 -42 -210 -49 -44 -3 -80 -10 -80 -14 0 -9 -62 -5 -79
5 -7 5 -11 56 -11 161 0 172 -3 165 78 165 123 0 329 60 447 129 195 114 349
279 435 464 34 74 68 172 86 252 7 28 8 27 16 -20 5 -27 10 -76 12 -107z
m-1779 -376 c6 -4 28 -32 49 -62 83 -117 178 -200 308 -268 86 -46 100 -63 74
-91 -25 -28 -35 -27 -109 10 -92 47 -164 99 -236 170 -69 68 -151 183 -151
211 0 27 42 47 65 30z m316 -48 c35 -30 75 -63 91 -72 51 -30 45 -82 -9 -82
-44 0 -203 130 -203 165 0 18 28 45 45 45 8 0 42 -25 76 -56z"/>
</g>
</svg>
